<?xml version="1.0" encoding="UTF-8" standalone="no"?><svg xmlns="http://www.w3.org/2000/svg" xmlns:xlink="http://www.w3.org/1999/xlink" width="59px" height="48px" viewBox="0 0 59 48" version="1.1"><title>4 -Twitter- (Solid)</title><g id="Page-1" stroke="none" stroke-width="1" fill="none" fill-rule="evenodd"><g id="Icons" transform="translate(-479.000000, -384.000000)" fill="#000"><g id="4--Twitter--(Solid)" transform="translate(479.000000, 384.000000)"><path d="M22 48C12.143 48 4.124 46.279.549 43.397a1.327 1.327 0 0 1-.427-1.476 1.37 1.37 0 0 1 1.266-.927c5.883-.123 9.65-1.465 12.555-3.163-5.65-.671-9.058-3.364-10.881-8.484a1.203 1.203 0 0 1 .386-1.345c.406-.321.972-.35 1.407-.07 1.495.961 2.982 1.162 4.789 1.164-3.74-2.297-7.283-6.141-8.606-10.822-.145-.51.06-1.045.509-1.331a1.205 1.205 0 0 1 1.445.108c1.065.929 2.33 1.49 4.072 1.757C3.133 14.88.748 9.048 4.112 2.541l.644-1.247.968 1.016C11.92 8.811 17.644 11.79 28 13.795v-.397C28 6.139 33.723.129 40.756 0c2.78-.032 6.696 1.98 8.26 2.856.075.042.15.052.223.029 1.962-.609 4.429-1.627 7.217-2.796a1.116 1.116 0 0 1 1.184.208c.317.291.437.744.305 1.153-.455 1.403-1.32 2.883-2.49 4.3l1.988-.686a1.17 1.17 0 0 1 1.203.269c.319.311.434.767.3 1.189-.921 2.895-2.663 5.048-4.946 6.139V13c0 19.299-14.355 35-32 35" id="Fill-1"/></g></g></g><metadata><rdf:RDF xmlns:rdf="http://www.w3.org/1999/02/22-rdf-syntax-ns#" xmlns:rdfs="http://www.w3.org/2000/01/rdf-schema#" xmlns:dc="http://purl.org/dc/elements/1.1/"><rdf:Description about="https://iconscout.com/legal#licenses" dc:title="twitter,greyscale" dc:description="twitter,greyscale" dc:publisher="Iconscout" dc:date="2017-09-07" dc:format="image/svg+xml" dc:language="en"><dc:creator><rdf:Bag><rdf:li>Smashicons .</rdf:li></rdf:Bag></dc:creator></rdf:Description></rdf:RDF></metadata></svg>